<svg width="610" height="799" viewBox="0 0 610 799" fill="none" xmlns="http://www.w3.org/2000/svg">
<g clip-path="url(#clip0)">
<path d="M207.8 659.606L207.809 659.134C208.006 654.97 209.767 651.054 212.705 648.245C215.644 645.437 219.52 643.964 223.487 644.15C299.649 647.931 357.42 631.038 395.193 593.944C432.608 557.264 452.291 498.935 453.782 420.597C453.861 416.42 455.517 412.444 458.386 409.544C461.255 406.644 465.102 405.057 469.079 405.133C473.056 405.209 476.84 406.94 479.596 409.947C482.352 412.954 483.856 416.991 483.776 421.168C482.118 508.315 459.21 574.208 415.689 616.938C371.78 660.09 306.632 679.857 222.068 675.612C218.171 675.42 214.501 673.641 211.837 670.654C209.174 667.665 207.726 663.702 207.8 659.606Z" fill="url(#paint0_linear)"/>
<path d="M454.781 368.099L455.78 315.601C455.859 311.424 457.515 307.447 460.384 304.547C463.253 301.647 467.1 300.061 471.077 300.136C475.054 300.212 478.838 301.944 481.594 304.951C484.351 307.958 485.854 311.995 485.775 316.171L484.775 368.67C484.696 372.846 483.04 376.823 480.171 379.723C477.303 382.623 473.456 384.209 469.478 384.134C465.501 384.058 461.717 382.326 458.961 379.319C456.205 376.312 454.701 372.275 454.781 368.099Z" fill="url(#paint1_linear)"/>
<path d="M456.679 268.352L459.017 145.506C459.096 141.33 460.752 137.353 463.621 134.453C466.49 131.553 470.337 129.967 474.314 130.042C478.291 130.118 482.075 131.849 484.831 134.857C487.588 137.864 489.091 141.9 489.012 146.077L486.674 268.923C486.594 273.1 484.938 277.076 482.07 279.976C479.201 282.876 475.354 284.463 471.377 284.387C467.399 284.311 463.616 282.58 460.859 279.573C458.103 276.565 456.6 272.529 456.679 268.352Z" fill="url(#paint2_linear)"/>
<path d="M176.434 704.794C176.5 701.313 177.881 697.999 180.271 695.583C182.661 693.166 185.867 691.844 189.182 691.907C269.537 693.436 311.941 687.342 348.083 674.418C349.646 673.826 351.305 673.566 352.963 673.656C354.621 673.744 356.245 674.179 357.74 674.934C359.235 675.69 360.572 676.75 361.671 678.054C362.771 679.359 363.611 680.881 364.144 682.531C364.676 684.181 364.89 685.927 364.773 687.667C364.656 689.406 364.211 691.105 363.462 692.662C362.713 694.22 361.676 695.606 360.413 696.739C359.149 697.872 357.683 698.731 356.102 699.264C317.22 713.176 270.068 719.684 188.712 718.136C187.071 718.109 185.45 717.742 183.944 717.056C182.438 716.371 181.076 715.381 179.936 714.142C178.795 712.903 177.899 711.44 177.298 709.835C176.698 708.231 176.404 706.518 176.434 704.794Z" fill="url(#paint3_linear)"/>
<path d="M374.341 671.104C374.383 668.742 375.031 666.433 376.217 664.422C377.403 662.411 379.083 660.773 381.08 659.679C408.931 644.69 432.888 622.791 450.866 595.885C467.165 571.418 479.23 541.807 486.738 507.846C487.489 504.453 489.493 501.511 492.307 499.665C495.123 497.82 498.518 497.223 501.748 498.006C504.977 498.789 507.775 500.887 509.527 503.841C511.279 506.793 511.841 510.357 511.09 513.75C493.647 592.593 453.786 649.53 392.598 682.984C390.672 684.035 388.52 684.542 386.352 684.456C384.185 684.369 382.078 683.693 380.236 682.493C378.396 681.293 376.884 679.61 375.851 677.609C374.817 675.61 374.297 673.361 374.341 671.083L374.341 671.104Z" fill="url(#paint4_linear)"/>
<path d="M493.415 467.587C493.423 467.167 493.431 466.747 493.439 466.327C495 452.093 495.998 436.966 496.294 421.406L497.273 369.957C497.34 366.477 498.72 363.163 501.11 360.747C503.501 358.33 506.706 357.008 510.021 357.071C513.335 357.134 516.488 358.577 518.785 361.083C521.082 363.589 522.335 366.953 522.269 370.433L521.29 421.881C520.978 438.282 519.974 454.238 518.327 469.279C517.95 472.622 516.366 475.686 513.902 477.842C511.437 479.996 508.281 481.077 505.084 480.86C501.887 480.642 498.893 479.144 496.722 476.674C494.55 474.205 493.367 470.951 493.415 467.587Z" fill="url(#paint5_linear)"/>
<path d="M498.132 324.81L500.78 185.689C500.846 182.209 502.226 178.895 504.617 176.478C507.008 174.062 510.213 172.74 513.527 172.803C516.842 172.866 519.995 174.309 522.291 176.815C524.588 179.32 525.842 182.684 525.775 186.165L523.128 325.285C523.062 328.766 521.681 332.08 519.291 334.496C516.9 336.913 513.695 338.235 510.38 338.172C507.066 338.109 503.913 336.666 501.616 334.16C499.319 331.654 498.066 328.29 498.132 324.81Z" fill="url(#paint6_linear)"/>
<path d="M501.529 146.316L501.786 132.845C501.852 129.364 503.232 126.05 505.622 123.634C508.013 121.217 511.218 119.895 514.533 119.958C517.848 120.021 521 121.464 523.297 123.97C525.594 126.476 526.847 129.84 526.781 133.32L526.525 146.791C526.458 150.272 525.078 153.586 522.687 156.002C520.297 158.419 517.092 159.741 513.777 159.678C510.463 159.615 507.31 158.172 505.013 155.666C502.716 153.16 501.463 149.796 501.529 146.316Z" fill="url(#paint7_linear)"/>
<path d="M502.528 93.8173L503.388 48.6689C503.454 45.188 504.834 41.8749 507.225 39.4581C509.615 37.0414 512.82 35.7191 516.135 35.7822C519.45 35.8453 522.602 37.2886 524.899 39.7945C527.196 42.3004 528.449 45.6637 528.383 49.1446L527.524 94.293C527.458 97.7738 526.077 101.087 523.687 103.504C521.296 105.92 518.091 107.243 514.776 107.18C511.462 107.117 508.309 105.673 506.012 103.167C503.715 100.661 502.462 97.2981 502.528 93.8173Z" fill="url(#paint8_linear)"/>
<path d="M205.575 750.219C205.671 745.347 207.604 740.71 210.951 737.327C214.297 733.944 218.783 732.092 223.422 732.177C283.901 733.328 337.046 724.088 381.373 704.723C383.51 703.71 385.818 703.158 388.162 703.098C390.504 703.04 392.834 703.475 395.012 704.38C397.189 705.285 399.172 706.64 400.839 708.364C402.508 710.09 403.829 712.15 404.722 714.423C405.617 716.695 406.068 719.134 406.048 721.595C406.027 724.056 405.537 726.488 404.605 728.749C403.673 731.008 402.319 733.049 400.622 734.75C398.926 736.451 396.922 737.778 394.73 738.651C345.905 759.989 288.019 770.232 222.681 768.988C220.382 768.939 218.115 768.414 216.01 767.444C213.907 766.474 212.006 765.077 210.417 763.334C208.829 761.591 207.582 759.536 206.752 757.285C205.922 755.035 205.521 752.633 205.575 750.219Z" fill="url(#paint9_linear)"/>
<path d="M422.553 691.411C422.603 688.527 423.301 685.695 424.589 683.144C425.876 680.594 427.718 678.397 429.964 676.732C486.646 634.599 520.594 568.297 530.862 479.654C531.085 477.212 531.771 474.84 532.879 472.679C533.988 470.518 535.497 468.611 537.318 467.07C539.138 465.53 541.233 464.387 543.479 463.709C545.725 463.032 548.077 462.833 550.396 463.125C552.715 463.416 554.954 464.192 556.981 465.407C559.008 466.622 560.782 468.252 562.198 470.2C563.615 472.148 564.645 474.374 565.229 476.747C565.812 479.122 565.937 481.596 565.595 484.023C554.102 583.408 515.27 658.336 450.147 706.746C447.502 708.708 444.393 709.863 441.165 710.084C437.936 710.305 434.714 709.581 431.857 707.996C428.998 706.41 426.616 704.022 424.974 701.098C423.332 698.175 422.493 694.829 422.553 691.432L422.553 691.411Z" fill="url(#paint10_linear)"/>
<path d="M540.35 418.568L544.026 225.374C544.119 220.502 546.051 215.863 549.398 212.48C552.745 209.096 557.232 207.245 561.873 207.333C566.513 207.421 570.927 209.442 574.143 212.951C577.358 216.459 579.113 221.167 579.02 226.04L575.343 419.234C575.251 424.106 573.318 428.745 569.971 432.128C566.625 435.512 562.137 437.363 557.497 437.275C552.856 437.187 548.443 435.166 545.227 431.657C542.011 428.149 540.257 423.441 540.35 418.568Z" fill="url(#paint11_linear)"/>
<path d="M539.123 168.038L540.621 89.2904C540.714 84.4172 542.646 79.7787 545.993 76.3953C549.34 73.0119 553.827 71.1607 558.468 71.2491C563.108 71.3374 567.522 73.3579 570.738 76.8662C573.953 80.3745 575.708 85.0832 575.615 89.9564L574.116 168.704C574.024 173.577 572.091 178.215 568.744 181.598C565.398 184.982 560.91 186.833 556.27 186.745C551.629 186.657 547.216 184.636 544 181.127C540.784 177.619 539.03 172.911 539.123 168.038Z" fill="url(#paint12_linear)"/>
<path d="M541.64 35.7423L542.28 2.14347C542.372 -2.72972 544.305 -7.36824 547.652 -10.7517C550.999 -14.1351 555.486 -15.9862 560.126 -15.8979C564.767 -15.8096 569.18 -13.7891 572.396 -10.2808C575.612 -6.77246 577.366 -2.06378 577.273 2.80941L576.634 36.4082C576.541 41.2814 574.609 45.9199 571.262 49.3034C567.915 52.6868 563.428 54.5379 558.787 54.4496C554.147 54.3613 549.733 52.3408 546.518 48.8325C543.302 45.3242 541.548 40.6155 541.64 35.7423Z" fill="url(#paint13_linear)"/>
<path d="M206.284 791.826C206.337 789.041 207.441 786.39 209.353 784.457C211.266 782.524 213.83 781.466 216.482 781.516C252.605 782.204 286.625 779.889 317.631 774.629C320.23 774.231 322.871 774.922 324.986 776.552C327.1 778.183 328.517 780.621 328.931 783.343C329.347 786.065 328.724 788.851 327.2 791.099C325.676 793.347 323.373 794.877 320.787 795.36C288.677 800.82 253.435 803.226 216.122 802.516C214.805 802.497 213.506 802.204 212.299 801.656C211.091 801.108 209.999 800.314 209.085 799.321C208.17 798.328 207.452 797.154 206.972 795.868C206.491 794.582 206.257 793.209 206.284 791.826Z" fill="url(#paint14_linear)"/>
<path d="M340.345 778.307C340.389 775.975 341.171 773.723 342.567 771.908C343.964 770.091 345.895 768.814 348.057 768.276C360.187 765.284 372.166 761.655 383.951 757.405C385.202 756.906 386.537 756.676 387.874 756.729C389.212 756.781 390.524 757.114 391.735 757.71C392.947 758.304 394.031 759.149 394.926 760.194C395.819 761.238 396.504 762.46 396.94 763.787C397.374 765.116 397.552 766.523 397.46 767.924C397.368 769.327 397.009 770.696 396.404 771.951C395.799 773.205 394.961 774.32 393.939 775.23C392.917 776.139 391.733 776.824 390.454 777.244C378.369 781.625 365.673 785.49 352.639 788.74C351.36 789.058 350.034 789.108 348.738 788.888C347.441 788.668 346.199 788.182 345.083 787.457C343.966 786.733 342.997 785.784 342.231 784.666C341.464 783.547 340.915 782.281 340.615 780.938C340.417 780.077 340.325 779.193 340.345 778.307Z" fill="url(#paint15_linear)"/>
<path d="M408.088 754.083C408.126 752.111 408.692 750.188 409.72 748.536C410.75 746.884 412.201 745.569 413.907 744.741C420.853 741.365 427.683 737.714 434.197 733.878C436.509 732.563 439.219 732.254 441.742 733.02C444.265 733.786 446.398 735.564 447.679 737.97C448.961 740.377 449.288 743.217 448.59 745.879C447.892 748.54 446.226 750.808 443.951 752.192C436.982 756.261 429.686 760.198 422.276 763.796C420.737 764.545 419.042 764.871 417.351 764.743C415.66 764.615 414.029 764.038 412.61 763.066C411.191 762.094 410.033 760.758 409.241 759.186C408.45 757.612 408.054 755.852 408.089 754.073L408.088 754.083Z" fill="url(#paint16_linear)"/>
<path d="M458.388 723.047C458.41 721.423 458.789 719.827 459.497 718.382C460.204 716.938 461.221 715.685 462.467 714.722C502.329 683.97 532.583 641.996 552.476 590.005C553.503 587.477 555.431 585.47 557.846 584.414C560.263 583.358 562.974 583.337 565.401 584.356C567.828 585.375 569.776 587.352 570.829 589.864C571.881 592.376 571.954 595.223 571.031 597.794C549.768 653.478 517.215 698.517 474.306 731.689C472.803 732.852 471.02 733.551 469.16 733.706C467.3 733.862 465.436 733.467 463.781 732.568C462.125 731.669 460.741 730.3 459.788 728.618C458.836 726.935 458.351 725.006 458.388 723.047Z" fill="url(#paint17_linear)"/>
<path d="M563.384 558.146C563.406 557.221 563.541 556.301 563.787 555.412C574.796 515.582 580.865 469.987 581.819 419.883C582.492 384.478 583.116 348.536 583.637 318.034C583.69 315.249 584.794 312.598 586.706 310.665C588.619 308.732 591.183 307.674 593.835 307.724C596.486 307.775 599.008 308.93 600.846 310.934C602.684 312.939 603.686 315.63 603.633 318.414C603.114 348.864 602.489 384.858 601.815 420.263C600.826 472.236 594.493 519.633 582.989 561.239C582.315 563.688 580.816 565.798 578.772 567.176C576.728 568.553 574.278 569.104 571.879 568.726C569.479 568.347 567.295 567.065 565.732 565.118C564.169 563.172 563.335 560.694 563.384 558.146Z" fill="url(#paint18_linear)"/>
<path d="M585.078 233.372C585.131 230.587 586.235 227.936 588.148 226.003C590.06 224.07 592.624 223.012 595.276 223.063C597.928 223.113 600.45 224.268 602.287 226.272C604.125 228.277 605.127 230.968 605.074 233.752L604.639 259.782L604.258 282.399C604.206 285.184 603.101 287.835 601.189 289.768C599.276 291.701 596.712 292.759 594.06 292.709C591.409 292.658 588.887 291.503 587.049 289.499C585.212 287.494 584.209 284.803 584.262 282.019L584.642 259.412L585.078 233.351L585.078 233.372Z" fill="url(#paint19_linear)"/>
<path d="M588.082 65.5109C588.135 62.7261 589.239 60.0756 591.152 58.1422C593.064 56.2089 595.629 55.151 598.28 55.2015C600.932 55.252 603.454 56.4066 605.292 58.4113C607.129 60.4161 608.132 63.1067 608.079 65.8914C607.283 107.711 606.48 149.888 605.673 198.63C605.62 201.415 604.515 204.066 602.603 205.999C600.69 207.932 598.126 208.99 595.475 208.939C592.823 208.889 590.301 207.734 588.463 205.729C586.626 203.725 585.623 201.034 585.676 198.249C586.514 149.508 587.286 107.341 588.082 65.5109Z" fill="url(#paint20_linear)"/>
<path d="M107.119 748.534C107.212 743.661 109.145 739.022 112.492 735.639C115.839 732.256 120.326 730.404 124.966 730.493L175.047 731.446C179.687 731.534 184.1 733.555 187.316 737.063C190.532 740.571 192.287 745.28 192.194 750.153C192.101 755.026 190.169 759.665 186.822 763.048C183.475 766.431 178.988 768.283 174.348 768.194L124.267 767.241C119.627 767.15 115.215 765.129 112 761.621C108.784 758.113 107.03 753.406 107.119 748.534Z" fill="#FFDD40"/>
<path d="M10.7184 701.944C10.7846 698.464 12.1649 695.15 14.5553 692.733C16.9457 690.317 20.1515 688.995 23.4659 689.058L150.823 691.481C154.137 691.544 157.29 692.988 159.587 695.494C161.884 697.999 163.137 701.363 163.071 704.844C163.005 708.324 161.624 711.638 159.234 714.055C156.843 716.471 153.638 717.794 150.323 717.73L22.9663 715.307C19.6519 715.244 16.4988 713.8 14.2021 711.295C11.9054 708.789 10.6521 705.425 10.7184 701.944Z" fill="#FFDD40"/>
<path d="M-88.7551 744.806C-88.7101 742.393 -88.2137 740.011 -87.2924 737.799C-86.3711 735.586 -85.0438 733.584 -83.3856 731.909C-81.7284 730.232 -79.7731 728.916 -77.6329 728.033C-75.4917 727.15 -73.2071 726.72 -70.9086 726.765L76.8347 729.577C81.4749 729.665 85.8882 731.686 89.104 735.194C92.3199 738.702 94.0746 743.411 93.9819 748.284C93.8891 753.157 91.9565 757.796 88.6095 761.179C85.2626 764.562 80.7755 766.414 76.1354 766.325L-71.6079 763.514C-76.2481 763.425 -80.6614 761.405 -83.8772 757.896C-87.093 754.389 -88.8478 749.679 -88.7551 744.806Z" fill="#FFDD40"/>
<path d="M154.474 791.312C154.527 788.528 155.632 785.877 157.544 783.944C159.456 782.011 162.021 780.953 164.672 781.003L180.609 781.306C183.261 781.357 185.783 782.512 187.62 784.516C189.458 786.521 190.461 789.212 190.408 791.996C190.355 794.781 189.25 797.432 187.338 799.365C185.426 801.298 182.861 802.356 180.21 802.306L164.272 802.002C161.621 801.952 159.099 800.797 157.261 798.792C155.424 796.788 154.421 794.097 154.474 791.312Z" fill="#FFDD40"/>
<path d="M43.3441 789.198C43.3971 786.413 44.5017 783.762 46.4139 781.829C48.326 779.896 50.8906 778.838 53.5421 778.888L129.698 780.338C132.35 780.388 134.872 781.543 136.71 783.547C138.547 785.552 139.55 788.243 139.497 791.027C139.444 793.812 138.339 796.463 136.427 798.396C134.515 800.329 131.95 801.387 129.299 801.337L53.1425 799.888C50.491 799.837 47.9685 798.682 46.1313 796.678C44.2941 794.673 43.2912 791.982 43.3441 789.198Z" fill="#FFDD40"/>
</g>
<defs>
<linearGradient id="paint0_linear" x1="337.686" y1="966.404" x2="354.793" y2="67.4574" gradientUnits="userSpaceOnUse">
<stop stop-color="#FFDD40"/>
<stop offset="0.12" stop-color="#FCD846"/>
<stop offset="0.29" stop-color="#F3CB58"/>
<stop offset="0.48" stop-color="#E5B576"/>
<stop offset="0.7" stop-color="#D0979E"/>
<stop offset="0.93" stop-color="#B770D2"/>
<stop offset="1" stop-color="#AE63E4"/>
</linearGradient>
<linearGradient id="paint1_linear" x1="467.825" y1="472.089" x2="473.044" y2="197.807" gradientUnits="userSpaceOnUse">
<stop stop-color="#FFDD40"/>
<stop offset="0.07" stop-color="#F8D24F"/>
<stop offset="0.4" stop-color="#D8A38F"/>
<stop offset="0.67" stop-color="#C180BD"/>
<stop offset="0.88" stop-color="#B36BD9"/>
<stop offset="1" stop-color="#AE63E4"/>
</linearGradient>
<linearGradient id="paint2_linear" x1="468.321" y1="446.008" x2="477.912" y2="-57.9848" gradientUnits="userSpaceOnUse">
<stop stop-color="#FFDD40"/>
<stop offset="0.12" stop-color="#F0C65F"/>
<stop offset="0.33" stop-color="#D8A38E"/>
<stop offset="0.53" stop-color="#C687B3"/>
<stop offset="0.71" stop-color="#B973CE"/>
<stop offset="0.87" stop-color="#B167DE"/>
<stop offset="1" stop-color="#AE63E4"/>
</linearGradient>
<linearGradient id="paint3_linear" x1="269.12" y1="769.494" x2="272.074" y2="614.246" gradientUnits="userSpaceOnUse">
<stop stop-color="#FFDD40"/>
<stop offset="0.29" stop-color="#FEDB42"/>
<stop offset="0.44" stop-color="#FAD54A"/>
<stop offset="0.57" stop-color="#F3CB58"/>
<stop offset="0.68" stop-color="#EABD6B"/>
<stop offset="0.77" stop-color="#DDAA85"/>
<stop offset="0.86" stop-color="#CE93A4"/>
<stop offset="0.95" stop-color="#BC78C7"/>
<stop offset="1" stop-color="#AE63E4"/>
</linearGradient>
<linearGradient id="paint4_linear" x1="437.316" y1="883.264" x2="449.052" y2="266.537" gradientUnits="userSpaceOnUse">
<stop stop-color="#FFDD40"/>
<stop offset="0.13" stop-color="#FCD946"/>
<stop offset="0.29" stop-color="#F4CD55"/>
<stop offset="0.47" stop-color="#E7BA70"/>
<stop offset="0.67" stop-color="#D59E94"/>
<stop offset="0.87" stop-color="#BE7CC3"/>
<stop offset="1" stop-color="#AE63E4"/>
</linearGradient>
<linearGradient id="paint5_linear" x1="504.194" y1="610.681" x2="511.893" y2="206.12" gradientUnits="userSpaceOnUse">
<stop stop-color="#FFDD40"/>
<stop offset="0.2" stop-color="#ECC067"/>
<stop offset="0.58" stop-color="#CB8EAA"/>
<stop offset="0.86" stop-color="#B66FD4"/>
<stop offset="1" stop-color="#AE63E4"/>
</linearGradient>
<linearGradient id="paint6_linear" x1="507.085" y1="511.332" x2="517.361" y2="-28.6538" gradientUnits="userSpaceOnUse">
<stop stop-color="#FFDD40"/>
<stop offset="0.2" stop-color="#E9BD6C"/>
<stop offset="0.47" stop-color="#D0969F"/>
<stop offset="0.7" stop-color="#BE7AC5"/>
<stop offset="0.88" stop-color="#B269DC"/>
<stop offset="1" stop-color="#AE63E4"/>
</linearGradient>
<linearGradient id="paint7_linear" x1="512.986" y1="201.267" x2="515.454" y2="71.5757" gradientUnits="userSpaceOnUse">
<stop stop-color="#FFDD40"/>
<stop offset="0.01" stop-color="#FCD945"/>
<stop offset="0.12" stop-color="#E8BA6F"/>
<stop offset="0.24" stop-color="#D69F93"/>
<stop offset="0.36" stop-color="#C789B1"/>
<stop offset="0.49" stop-color="#BC78C7"/>
<stop offset="0.63" stop-color="#B46CD7"/>
<stop offset="0.79" stop-color="#AF65E1"/>
<stop offset="1" stop-color="#AE63E4"/>
</linearGradient>
<linearGradient id="paint8_linear" x1="513.354" y1="181.937" x2="517.79" y2="-51.1968" gradientUnits="userSpaceOnUse">
<stop stop-color="#FFDD40"/>
<stop offset="0.01" stop-color="#FDDA44"/>
<stop offset="0.12" stop-color="#E8BB6E"/>
<stop offset="0.24" stop-color="#D6A092"/>
<stop offset="0.37" stop-color="#C88AB0"/>
<stop offset="0.5" stop-color="#BC79C7"/>
<stop offset="0.64" stop-color="#B46CD7"/>
<stop offset="0.79" stop-color="#AF65E1"/>
<stop offset="1" stop-color="#AE63E4"/>
</linearGradient>
<linearGradient id="paint9_linear" x1="303.547" y1="842.486" x2="307.82" y2="617.973" gradientUnits="userSpaceOnUse">
<stop stop-color="#FFDD40"/>
<stop offset="0.3" stop-color="#FEDB42"/>
<stop offset="0.45" stop-color="#FAD54A"/>
<stop offset="0.57" stop-color="#F3CB58"/>
<stop offset="0.68" stop-color="#EABD6B"/>
<stop offset="0.78" stop-color="#DEAB84"/>
<stop offset="0.86" stop-color="#CE94A2"/>
<stop offset="0.94" stop-color="#BD79C6"/>
<stop offset="1" stop-color="#AE63E4"/>
</linearGradient>
<linearGradient id="paint10_linear" x1="486.827" y1="971.438" x2="502.277" y2="159.585" gradientUnits="userSpaceOnUse">
<stop stop-color="#FFDD40"/>
<stop offset="0.13" stop-color="#FCD945"/>
<stop offset="0.29" stop-color="#F5CE54"/>
<stop offset="0.47" stop-color="#E9BC6C"/>
<stop offset="0.65" stop-color="#D8A38E"/>
<stop offset="0.84" stop-color="#C383B9"/>
<stop offset="1" stop-color="#AE63E4"/>
</linearGradient>
<linearGradient id="paint11_linear" x1="552.915" y1="678.053" x2="567.204" y2="-72.7867" gradientUnits="userSpaceOnUse">
<stop stop-color="#FFDD40"/>
<stop offset="0.1" stop-color="#F2CA5A"/>
<stop offset="0.32" stop-color="#DAA58B"/>
<stop offset="0.52" stop-color="#C789B1"/>
<stop offset="0.71" stop-color="#B974CD"/>
<stop offset="0.88" stop-color="#B167DE"/>
<stop offset="1" stop-color="#AE63E4"/>
</linearGradient>
<linearGradient id="paint12_linear" x1="553.968" y1="307.68" x2="561.145" y2="-69.4565" gradientUnits="userSpaceOnUse">
<stop stop-color="#FFDD40"/>
<stop offset="0.02" stop-color="#FBD749"/>
<stop offset="0.13" stop-color="#E6B872"/>
<stop offset="0.24" stop-color="#D59E95"/>
<stop offset="0.36" stop-color="#C788B2"/>
<stop offset="0.49" stop-color="#BC78C8"/>
<stop offset="0.62" stop-color="#B46CD8"/>
<stop offset="0.78" stop-color="#AF65E1"/>
<stop offset="1" stop-color="#AE63E4"/>
</linearGradient>
<linearGradient id="paint13_linear" x1="557.706" y1="128.121" x2="561.327" y2="-101.604" gradientUnits="userSpaceOnUse">
<stop stop-color="#FDDB43"/>
<stop offset="0.06" stop-color="#EBBF69"/>
<stop offset="0.13" stop-color="#DBA68A"/>
<stop offset="0.2" stop-color="#CD91A6"/>
<stop offset="0.28" stop-color="#C180BD"/>
<stop offset="0.37" stop-color="#B973CE"/>
<stop offset="0.49" stop-color="#B36ADB"/>
<stop offset="0.64" stop-color="#AF65E2"/>
<stop offset="1" stop-color="#AE63E4"/>
</linearGradient>
<linearGradient id="paint14_linear" x1="266.845" y1="834.887" x2="268.708" y2="736.989" gradientUnits="userSpaceOnUse">
<stop stop-color="#FFDD40"/>
<stop offset="0.27" stop-color="#FEDB42"/>
<stop offset="0.43" stop-color="#FAD54B"/>
<stop offset="0.56" stop-color="#F3CB59"/>
<stop offset="0.67" stop-color="#E9BC6D"/>
<stop offset="0.77" stop-color="#DCA986"/>
<stop offset="0.86" stop-color="#CD91A6"/>
<stop offset="0.95" stop-color="#BA75CB"/>
<stop offset="1" stop-color="#AE63E4"/>
</linearGradient>
<linearGradient id="paint15_linear" x1="367.805" y1="823.795" x2="369.849" y2="716.373" gradientUnits="userSpaceOnUse">
<stop stop-color="#FFDD40"/>
<stop offset="0.27" stop-color="#FEDB42"/>
<stop offset="0.42" stop-color="#FAD54B"/>
<stop offset="0.55" stop-color="#F3CA59"/>
<stop offset="0.66" stop-color="#E9BB6D"/>
<stop offset="0.77" stop-color="#DCA887"/>
<stop offset="0.86" stop-color="#CC90A7"/>
<stop offset="0.95" stop-color="#BA75CC"/>
<stop offset="1" stop-color="#AE63E4"/>
</linearGradient>
<linearGradient id="paint16_linear" x1="427.625" y1="799.137" x2="429.652" y2="692.586" gradientUnits="userSpaceOnUse">
<stop stop-color="#FFDD40"/>
<stop offset="0.18" stop-color="#FDDA43"/>
<stop offset="0.34" stop-color="#F8D24E"/>
<stop offset="0.48" stop-color="#EFC560"/>
<stop offset="0.63" stop-color="#E3B279"/>
<stop offset="0.76" stop-color="#D39A9A"/>
<stop offset="0.9" stop-color="#BF7DC1"/>
<stop offset="1" stop-color="#AE63E4"/>
</linearGradient>
<linearGradient id="paint17_linear" x1="510.598" y1="893.818" x2="520.047" y2="397.29" gradientUnits="userSpaceOnUse">
<stop stop-color="#FFDD40"/>
<stop offset="0.13" stop-color="#FCD945"/>
<stop offset="0.29" stop-color="#F5CE55"/>
<stop offset="0.47" stop-color="#E8BB6E"/>
<stop offset="0.66" stop-color="#D7A092"/>
<stop offset="0.86" stop-color="#C07FBF"/>
<stop offset="1" stop-color="#AE63E4"/>
</linearGradient>
<linearGradient id="paint18_linear" x1="575.872" y1="842.701" x2="592.116" y2="-10.8774" gradientUnits="userSpaceOnUse">
<stop stop-color="#FFDD40"/>
<stop offset="1" stop-color="#AE63E4"/>
</linearGradient>
<linearGradient id="paint19_linear" x1="592.622" y1="365.68" x2="596.951" y2="138.195" gradientUnits="userSpaceOnUse">
<stop stop-color="#FFDD40"/>
<stop offset="0.14" stop-color="#EDC265"/>
<stop offset="0.34" stop-color="#D7A092"/>
<stop offset="0.53" stop-color="#C586B6"/>
<stop offset="0.71" stop-color="#B873CF"/>
<stop offset="0.87" stop-color="#B167DF"/>
<stop offset="1" stop-color="#AE63E4"/>
</linearGradient>
<linearGradient id="paint20_linear" x1="592.35" y1="369.961" x2="601.905" y2="-132.111" gradientUnits="userSpaceOnUse">
<stop stop-color="#FFDD40"/>
<stop offset="0.1" stop-color="#EEC462"/>
<stop offset="0.23" stop-color="#DBA689"/>
<stop offset="0.37" stop-color="#CB8EAA"/>
<stop offset="0.52" stop-color="#BE7BC4"/>
<stop offset="0.67" stop-color="#B56ED6"/>
<stop offset="0.82" stop-color="#B066E1"/>
<stop offset="1" stop-color="#AE63E4"/>
</linearGradient>
<clipPath id="clip0">
<rect width="825.42" height="594" fill="white" transform="translate(609.598 11.3022) rotate(91.0902)"/>
</clipPath>
</defs>
</svg>
